<svg width="536" height="398" viewBox="0 0 536 398" fill="none" xmlns="http://www.w3.org/2000/svg">
<rect x="21" y="24" width="498.408" height="353.605" fill="url(#paint0_linear_58_11)"/>
<path d="M201.386 223.536L22.1121 333.621V383.906C22.1121 383.906 502.11 382.3 513.971 381.559C525.832 380.817 519.001 317.592 519.408 277.652C493.173 244.458 436.801 175.598 426.126 165.714C415.451 155.83 401.416 161.596 395.732 165.714L278.235 271.968C266.538 259.943 241.046 233.42 232.644 223.536C224.243 213.652 208.304 219.418 201.386 223.536Z" fill="url(#paint1_linear_58_11)"/>
<circle cx="81.1696" cy="137.297" r="23.3513" fill="url(#paint2_linear_58_11)"/>
<rect x="12.9536" y="12" width="510.299" height="373.898" rx="18" stroke="#3E3E40" stroke-width="24"/>
<defs>
<linearGradient id="paint0_linear_58_11" x1="21" y1="200.802" x2="519.408" y2="200.802" gradientUnits="userSpaceOnUse">
<stop offset="0.515756" stop-color="#F1EFE2"/>
<stop offset="0.517317" stop-color="#DFDDD0"/>
</linearGradient>
<linearGradient id="paint1_linear_58_11" x1="520.89" y1="325.219" x2="21.9885" y2="325.466" gradientUnits="userSpaceOnUse">
<stop offset="0.483958" stop-color="#3B8382"/>
<stop offset="0.488255" stop-color="#4DA3A4"/>
</linearGradient>
<linearGradient id="paint2_linear_58_11" x1="57.8184" y1="137.173" x2="104.521" y2="137.153" gradientUnits="userSpaceOnUse">
<stop offset="0.476616" stop-color="#F5BB50"/>
<stop offset="0.491275" stop-color="#D5A447"/>
</linearGradient>
</defs>
</svg>
