<svg width="15" height="15" viewBox="0 0 15 15" fill="none" xmlns="http://www.w3.org/2000/svg">
<path fill-rule="evenodd" clip-rule="evenodd" d="M5.27738 3.14939C6.26428 2.7805 7.34308 2.72783 8.36188 2.99894C8.89559 3.14096 9.44339 2.82344 9.58541 2.28973C9.72744 1.75602 9.40991 1.20823 8.8762 1.0662C7.45636 0.688372 5.95308 0.761676 4.57713 1.27599C3.2011 1.79033 2.02061 2.72028 1.20234 3.93648C0.384009 5.15279 -0.0306063 6.59392 0.0176343 8.05739C0.0658746 9.52084 0.574493 10.9318 1.471 12.0921C2.36743 13.2523 3.60639 14.1035 5.01316 14.5273C6.41987 14.951 7.92475 14.9266 9.31682 14.4573C10.709 13.988 11.9193 13.097 12.7772 11.9081C13.635 10.7192 14.0969 9.29238 14.0969 7.82813C14.0969 7.27584 13.6492 6.82813 13.0969 6.82813C12.5446 6.82813 12.0969 7.27584 12.0969 7.82813C12.0969 8.87119 11.768 9.88874 11.1553 10.7379C10.5425 11.5871 9.67645 12.2255 8.67791 12.5621C7.67929 12.8988 6.59933 12.9163 5.59007 12.6123C4.58088 12.3082 3.69413 11.6983 3.05364 10.8693C2.41322 10.0404 2.05091 9.03402 2.01655 7.9915C1.98218 6.94898 2.27743 5.92138 2.86173 5.05292C3.4461 4.18437 4.29055 3.51826 5.27738 3.14939ZM13.1759 3.8227C13.541 3.40831 13.5011 2.7764 13.0867 2.4113C12.6723 2.0462 12.0404 2.08616 11.6753 2.50055L7.58526 7.14273L5.63887 5.69298C5.19595 5.36307 4.56945 5.45468 4.23954 5.8976C3.90963 6.34053 4.00125 6.96703 4.44417 7.29694L6.39055 8.74669C7.22543 9.36854 8.39771 9.24597 9.0859 8.46488L13.1759 3.8227Z" fill="#25B573"/>
</svg>
