<svg width="42" height="28" viewBox="0 0 42 28" fill="none" xmlns="http://www.w3.org/2000/svg">
<path d="M11.5324 13.1704C13.5146 13.1704 15.0274 13.648 16.0706 14.6033C17.166 15.5587 17.7137 16.8408 17.7137 18.4497C17.7137 20.9637 16.827 23.1006 15.0534 24.8603C13.2799 26.6201 10.8543 27.5 7.77672 27.5C5.37723 27.5 3.55153 26.8464 2.29962 25.5391C1.09987 24.1816 0.5 22.4469 0.5 20.3352C0.5 17.3184 1.33461 14.5028 3.00382 11.8883C4.72519 9.22346 6.94211 6.91061 9.65458 4.94972C12.3671 2.98883 15.2621 1.50559 18.3397 0.5L19.0439 3.44133C17.3225 4.04469 15.5751 4.92458 13.8015 6.08101C12.0802 7.23743 10.5414 8.59497 9.18512 10.1536C7.88104 11.662 7.04644 13.2458 6.6813 14.905C6.94211 14.5028 7.5159 14.1257 8.40267 13.7737C9.3416 13.3715 10.3849 13.1704 11.5324 13.1704ZM33.9886 13.1704C35.9707 13.1704 37.4835 13.648 38.5267 14.6033C39.6221 15.5587 40.1699 16.8408 40.1699 18.4497C40.1699 20.9637 39.2831 23.1006 37.5095 24.8603C35.736 26.6201 33.3104 27.5 30.2328 27.5C27.8333 27.5 26.0076 26.8464 24.7557 25.5391C23.556 24.1816 22.9561 22.4469 22.9561 20.3352C22.9561 17.3184 23.7907 14.5028 25.4599 11.8883C27.1813 9.22346 29.3982 6.91061 32.1107 4.94972C34.8232 2.98883 37.7182 1.50559 40.7958 0.5L41.5 3.44133C39.7786 4.04469 38.0312 4.92458 36.2576 6.08101C34.5363 7.23743 32.9975 8.59497 31.6412 10.1536C30.3372 11.662 29.5025 13.2458 29.1374 14.905C29.3982 14.5028 29.972 14.1257 30.8588 13.7737C31.7977 13.3715 32.841 13.1704 33.9886 13.1704Z" fill="#5EEAA7"/>
</svg>
