<svg width="9" height="8" viewBox="0 0 9 8" fill="none" xmlns="http://www.w3.org/2000/svg">
<path fill-rule="evenodd" clip-rule="evenodd" d="M0.656392 0.477806C1.05415 0.0946494 1.69904 0.0946494 2.09679 0.477806L4.31278 2.61247L6.52878 0.477806C6.92653 0.0946491 7.57142 0.0946494 7.96918 0.477806C8.36693 0.860963 8.36693 1.48218 7.96918 1.86534L5.75318 4L7.96918 6.13466C8.36693 6.51782 8.36693 7.13904 7.96918 7.52219C7.57142 7.90535 6.92653 7.90535 6.52878 7.52219L4.31278 5.38753L2.09679 7.52219C1.69904 7.90535 1.05415 7.90535 0.656392 7.52219C0.258637 7.13904 0.258637 6.51782 0.656392 6.13466L2.87238 4L0.656392 1.86534C0.258637 1.48218 0.258637 0.860963 0.656392 0.477806Z" fill="#92959F"/>
</svg>
